<svg width="89" height="56" fill="none" xmlns="http://www.w3.org/2000/svg"><path d="M79.847.782c2.32-1.064 5.106-.224 6.14 2.11 1.845 4.168 2.863 8.595 2.998 13.086.178 5.953-1.202 11.863-4.034 17.276s-7.04 10.186-12.303 13.953c-5.263 3.767-11.44 6.427-18.058 7.777a50.623 50.623 0 0 1-20.121.012c-6.62-1.342-12.802-3.995-18.07-7.756-5.269-3.76-9.485-8.528-12.325-13.938C2.025 29.4.732 25.239.234 20.989c-.32-2.73 1.998-4.91 4.746-4.85l5.255.114c2.773.06 4.913 2.393 5.45 5.115a23.383 23.383 0 0 0 2.25 6.345c1.866 3.555 4.636 6.688 8.099 9.159 3.462 2.471 7.524 4.215 11.874 5.097 4.35.882 8.873.88 13.222-.008 4.35-.887 8.408-2.636 11.867-5.11 3.458-2.476 6.224-5.613 8.085-9.17 1.861-3.557 2.768-7.44 2.65-11.353a22.706 22.706 0 0 0-1.043-6.144c-.893-2.838.08-6.154 2.784-7.395L79.846.782Z" fill="#DB38E9"/></svg>