<svg width="30" height="30" fill="none" xmlns="http://www.w3.org/2000/svg"><path d="m29.127 26.428.003.003a.501.501 0 0 1 .17.375v1.359a.5.5 0 0 1-.5.5H1a.5.5 0 0 1-.5-.5v-1.36a.5.5 0 0 1 .17-.374l.006-.006a14.899 14.899 0 0 0 2.556-3.032l.012-.02.011-.02a13.13 13.13 0 0 0 1.404-5l.001-.02V13.375A10.31 10.31 0 0 1 13.559 3.14l.431-.06V1.336a.835.835 0 0 1 1.67 0v1.73l.437.056A10.31 10.31 0 0 1 25.1 13.374V18.334l.001.018a13.13 13.13 0 0 0 1.404 5l.011.023.014.021a14.9 14.9 0 0 0 2.597 3.032Zm-27.394.377-.89.86H28.967l-.89-.86a15.67 15.67 0 0 1-2.354-2.891A13.74 13.74 0 0 1 24.14 18.3v-4.917a9.24 9.24 0 1 0-18.47 0V18.3a13.74 13.74 0 0 1-1.583 5.614 15.671 15.671 0 0 1-2.354 2.891Z" fill="#F8F8F8" stroke="#fff"/></svg>