<svg width="32" height="29" fill="none" xmlns="http://www.w3.org/2000/svg"><path d="m28.91 28.546-10.183-9.24c-.909.66-1.954 1.182-3.136 1.567-1.182.385-2.44.578-3.773.578-3.303 0-6.098-1.038-8.385-3.115C1.145 16.259 0 13.722 0 10.726c0-2.998 1.144-5.535 3.433-7.61C5.72 1.04 8.516 0 11.818 0c3.303 0 6.098 1.038 8.386 3.115 2.287 2.077 3.431 4.614 3.432 7.61 0 1.21-.212 2.352-.636 3.424a9.606 9.606 0 0 1-1.727 2.847L31.5 26.277c.333.303.5.674.5 1.114 0 .44-.182.825-.546 1.155-.333.303-.757.454-1.272.454s-.94-.151-1.273-.454ZM11.817 18.151c2.273 0 4.205-.722 5.796-2.167 1.592-1.444 2.387-3.197 2.386-5.258 0-2.063-.796-3.817-2.387-5.261C16.02 4.021 14.09 3.299 11.818 3.3c-2.273 0-4.205.722-5.796 2.167C4.43 6.91 3.635 8.664 3.636 10.726c0 2.062.796 3.815 2.388 5.26 1.591 1.444 3.523 2.166 5.794 2.165Z" fill="#F8F8F8"/></svg>